<?xml version="1.0" encoding="UTF-8"?>
<svg id="Layer_2" data-name="Layer 2" xmlns="http://www.w3.org/2000/svg" viewBox="0 0 512 408.37">
  <defs>
    <style>
      .cls-1 {
        fill: #fff;
      }
    </style>
  </defs>
  <g id="Layer_1-2" data-name="Layer 1">
    <path class="cls-1" d="M474.71,136.64c8.56-13.55,18.2-31.77,25.55-54.44,10.73-33.11,12.24-62.32,11.63-82.2-5.5,15.21-19.51,47.6-52.27,75.59-13.96,11.93-28.16,20.35-41.01,26.31-33.72-14.54-66.83-14.83-79.75-14.95-49.5-.43-86.76,17.8-104.31,27.92,10.49,6.25,27.06,17.83,41.62,37.25,6.75,8.99,32.3,44.15,27.56,90.49-1.96,19.16-10.97,58.48-32.27,61.98-17.2,2.83-33.49-19.16-36.37-23.05-26.36-35.59-12.07-85.32-5.62-103.3-9.51,12.82-26.61,21.37-46.14,21.37s-36.61-8.55-46.13-21.36c6.45,17.99,20.73,67.71-5.63,103.29-2.88,3.88-19.17,25.87-36.37,23.05-21.3-3.5-30.31-42.82-32.27-61.98-4.74-46.34,20.82-81.5,27.56-90.49,14.6-19.47,31.22-31.06,41.7-37.3-15.79-3.32-48.4-12.38-79.83-39.24C19.63,47.6,5.61,15.21.12,0c-.62,19.88.89,49.09,11.63,82.2,7.35,22.67,16.99,40.89,25.55,54.44-9.57,14.22-30.24,49.11-31.18,97.78-.7,35.67,9.49,63.35,16.39,78.45,3.31,5.47,11,19.85,9.37,38.86-.88,10.22-4.16,18.23-6.78,23.32,7.59-1.06,26.91-2.71,47.81,7.48,16.32,7.96,25.96,19.43,30.47,25.62,14.03-9.78,38.22-29.4,56.91-62.34,15.38-27.11,20.9-52.39,23.08-68.56,2.18,16.17,7.7,41.46,23.08,68.56,18.69,32.94,42.88,52.56,56.9,62.34,4.51-6.2,14.15-17.66,30.48-25.62,2.08-1.01,4.14-1.91,6.18-2.7l22.1,28.55c7.22-12.42,19.36-28.61,37.1-31.39,17.76-2.79,27.46,9.99,45.76,11.61,31,2.74,57.55-29.17,66.24-39.61,41.64-50.04,50.57-146.89.37-207.77,1.05-1.52,2.1-3.05,3.15-4.57ZM430.2,310.06c-4.43,4.38-12.72,12.59-24.93,14-19.22,2.22-29.39-14.58-45.76-11.61-6.2,1.12-14.67,5.33-23.3,19.95,2.15-9.27,5.9-16.13,7.97-19.53,6.9-15.1,17.09-42.78,16.39-78.45-.47-24.05-5.75-44.74-12.14-61.24-6.28-16.24-15.06-31.4-25.82-45.07l-.31-.4c16.37-2.09,51.49-3.86,81.61,17.59,56.34,40.11,57.05,134.31,26.29,164.75Z"/>
  </g>
</svg>