{
  "accessors": [
    {
      "bufferView": 0,
      "componentType": 5125,
      "count": 55260,
      "type": "SCALAR"
    },
    {
      "bufferView": 1,
      "componentType": 5126,
      "count": 11406,
      "max": [
        1.0902024466732656,
        0.791696753138593,
        0.18809565870367517
      ],
      "min": [
        0.0780519466509329,
        -0.7916967557932619,
        -0.1880956587036752
      ],
      "type": "VEC3"
    },
    {
      "bufferView": 2,
      "componentType": 5126,
      "count": 11406,
      "max": [
        0.9999999844809082,
        0.9999979266258087,
        0.9999915527597105
      ],
      "min": [
        -0.9999999078599444,
        -0.9999984826011881,
        -0.9999915527597105
      ],
      "type": "VEC3"
    },
    {
      "bufferView": 3,
      "componentType": 5126,
      "count": 11406,
      "max": [
        0.9863635810606249,
        1.0
      ],
      "min": [
        0.0,
        0.0
      ],
      "type": "VEC2"
    },
    {
      "bufferView": 4,
      "componentType": 5125,
      "count": 64224,
      "type": "SCALAR"
    },
    {
      "bufferView": 5,
      "componentType": 5126,
      "count": 13574,
      "max": [
        0.30134030101149734,
        0.7916967557932619,
        0.2172026572097904
      ],
      "min": [
        -1.0902024466732656,
        -0.7908026462432958,
        -0.2172026572097904
      ],
      "type": "VEC3"
    },
    {
      "bufferView": 6,
      "componentType": 5126,
      "count": 13574,
      "max": [
        0.9999998830983942,
        0.9999999487294868,
        0.9999043313024096
      ],
      "min": [
        -0.9999999844531768,
        -0.9999999999999568,
        -0.9999043313024096
      ],
      "type": "VEC3"
    },
    {
      "bufferView": 7,
      "componentType": 5126,
      "count": 13574,
      "max": [
        1.0,
        0.5783965636991569
      ],
      "min": [
        0.0,
        0.0
      ],
      "type": "VEC2"
    }
  ],
  "asset": {
    "generator": "Adobe Illustrator",
    "version": "2.0"
  },
  "bufferViews": [
    {
      "buffer": 0,
      "byteLength": 221040,
      "target": 34963
    },
    {
      "buffer": 0,
      "byteLength": 136872,
      "byteOffset": 221040,
      "target": 34962
    },
    {
      "buffer": 0,
      "byteLength": 136872,
      "byteOffset": 357912,
      "target": 34962
    },
    {
      "buffer": 0,
      "byteLength": 91248,
      "byteOffset": 494784,
      "target": 34962
    },
    {
      "buffer": 0,
      "byteLength": 256896,
      "byteOffset": 586032,
      "target": 34963
    },
    {
      "buffer": 0,
      "byteLength": 162888,
      "byteOffset": 842928,
      "target": 34962
    },
    {
      "buffer": 0,
      "byteLength": 162888,
      "byteOffset": 1005816,
      "target": 34962
    },
    {
      "buffer": 0,
      "byteLength": 108592,
      "byteOffset": 1168704,
      "target": 34962
    }
  ],
  "buffers": [
    {
      "byteLength": 1277296,
      "uri": "data:application/octet-stream;base64,"
    }
  ],
  "materials": [
    {
      "doubleSided": true,
      "pbrMetallicRoughness": {
        "baseColorFactor": [
          0.76171875,
          0.55078125,
          0.85546875,
          1.0
        ],
        "metallicFactor": 0.6803278923034668,
        "roughnessFactor": 0.08852460235357285
      }
    },
    {
      "doubleSided": true,
      "pbrMetallicRoughness": {
        "baseColorFactor": [
          0.76171875,
          0.55078125,
          0.85546875,
          1.0
        ],
        "metallicFactor": 0.6803278923034668,
        "roughnessFactor": 0.08852460235357285
      }
    }
  ],
  "meshes": [
    {
      "primitives": [
        {
          "attributes": {
            "NORMAL": 2,
            "POSITION": 1,
            "TEXCOORD_0": 3
          },
          "indices": 0,
          "material": 0,
          "mode": 4
        }
      ]
    },
    {
      "primitives": [
        {
          "attributes": {
            "NORMAL": 6,
            "POSITION": 5,
            "TEXCOORD_0": 7
          },
          "indices": 4,
          "material": 1,
          "mode": 4
        }
      ]
    }
  ],
  "nodes": [
    {
      "mesh": 0
    },
    {
      "mesh": 1
    }
  ],
  "scenes": [
    {
      "nodes": [
        0,
        1
      ]
    }
  ]
}
