<?xml version="1.0" encoding="UTF-8"?>
<svg id="Layer_2" data-name="Layer 2" xmlns="http://www.w3.org/2000/svg" xmlns:xlink="http://www.w3.org/1999/xlink" viewBox="0 0 1920 1018.3">
  <defs>
    <style>
      .cls-1 {
        fill: #0c0c0c;
      }

      .cls-2 {
        stroke: #855c9d;
        stroke-miterlimit: 10;
      }

      .cls-2, .cls-3 {
        fill: none;
      }

      .cls-4 {
        clip-path: url(#clippath);
      }
    </style>
    <clipPath id="clippath">
      <rect class="cls-3" x="0" width="1920" height="1018.3"/>
    </clipPath>
  </defs>
  <g id="Layer_1-2" data-name="Layer 1">
    <g>
      <rect class="cls-1" x="0" width="1920" height="1015.81"/>
      <g class="cls-4">
        <g>
          <path class="cls-2" d="M102.93,29.2c-12.3-2.58-37.68-9.64-62.15-30.55C15.29-23.14,4.37-48.35.09-60.2-.39-44.71.79-21.98,9.14,3.8c4.67,14.41,10.53,26.52,16.15,36.21,4.68,8.07,11.6,14.66,20.05,18.61,5.91,2.77,13.22,4.62,21.64,3.6,17.21-2.08,31.68-15.26,35.95-33.02Z"/>
          <path class="cls-2" d="M250.93,29.2c-12.3-2.58-37.68-9.64-62.15-30.55-25.49-21.79-36.41-47.01-40.69-58.85-.48,15.49.7,38.22,9.05,63.99,4.67,14.41,10.53,26.52,16.15,36.21,4.68,8.07,11.6,14.66,20.05,18.61,5.91,2.77,13.22,4.62,21.64,3.6,17.21-2.08,31.68-15.26,35.95-33.02Z"/>
          <path class="cls-2" d="M398.93,29.2c-12.3-2.58-37.68-9.64-62.15-30.55-25.49-21.79-36.41-47.01-40.69-58.85-.48,15.49.7,38.22,9.05,63.99,4.67,14.41,10.53,26.52,16.15,36.21,4.68,8.07,11.6,14.66,20.05,18.61,5.91,2.77,13.22,4.62,21.64,3.6,17.21-2.08,31.68-15.26,35.95-33.02Z"/>
          <path class="cls-2" d="M546.93,29.2c-12.3-2.58-37.68-9.64-62.15-30.55-25.49-21.79-36.41-47.01-40.69-58.85-.48,15.49.7,38.22,9.05,63.99,4.67,14.41,10.53,26.52,16.15,36.21,4.68,8.07,11.6,14.66,20.05,18.61,5.91,2.77,13.22,4.62,21.64,3.6,17.21-2.08,31.68-15.26,35.95-33.02Z"/>
          <path class="cls-2" d="M694.93,29.2c-12.3-2.58-37.68-9.64-62.15-30.55-25.49-21.79-36.41-47.01-40.69-58.85-.48,15.49.7,38.22,9.05,63.99,4.67,14.41,10.53,26.52,16.15,36.21,4.68,8.07,11.6,14.66,20.05,18.61,5.91,2.77,13.22,4.62,21.64,3.6,17.21-2.08,31.68-15.26,35.95-33.02Z"/>
          <path class="cls-2" d="M842.93,29.2c-12.3-2.58-37.68-9.64-62.15-30.55-25.49-21.79-36.41-47.01-40.69-58.85-.48,15.49.7,38.22,9.05,63.99,4.67,14.41,10.53,26.52,16.15,36.21,4.68,8.07,11.6,14.66,20.05,18.61,5.91,2.77,13.22,4.62,21.64,3.6,17.21-2.08,31.68-15.26,35.95-33.02Z"/>
          <path class="cls-2" d="M990.93,29.2c-12.3-2.58-37.68-9.64-62.15-30.55-25.49-21.79-36.41-47.01-40.69-58.85-.48,15.49.7,38.22,9.05,63.99,4.67,14.41,10.53,26.52,16.15,36.21,4.68,8.07,11.6,14.66,20.05,18.61,5.91,2.77,13.22,4.62,21.64,3.6,17.21-2.08,31.68-15.26,35.95-33.02Z"/>
          <path class="cls-2" d="M1138.93,29.2c-12.3-2.58-37.68-9.64-62.15-30.55-25.49-21.79-36.41-47.01-40.69-58.85-.48,15.49.7,38.22,9.05,63.99,4.67,14.41,10.53,26.52,16.15,36.21,4.68,8.07,11.6,14.66,20.05,18.61,5.91,2.77,13.22,4.62,21.64,3.6,17.21-2.08,31.68-15.26,35.95-33.02Z"/>
          <path class="cls-2" d="M1286.93,29.2c-12.3-2.58-37.68-9.64-62.15-30.55-25.49-21.79-36.41-47.01-40.69-58.85-.48,15.49.7,38.22,9.05,63.99,4.67,14.41,10.53,26.52,16.15,36.21,4.68,8.07,11.6,14.66,20.05,18.61,5.91,2.77,13.22,4.62,21.64,3.6,17.21-2.08,31.68-15.26,35.95-33.02Z"/>
          <path class="cls-2" d="M1434.93,29.2c-12.3-2.58-37.68-9.64-62.15-30.55-25.49-21.79-36.41-47.01-40.69-58.85-.48,15.49.7,38.22,9.05,63.99,4.67,14.41,10.53,26.52,16.15,36.21,4.68,8.07,11.6,14.66,20.05,18.61,5.91,2.77,13.22,4.62,21.64,3.6,17.21-2.08,31.68-15.26,35.95-33.02Z"/>
          <path class="cls-2" d="M1582.93,29.2c-12.3-2.58-37.68-9.64-62.15-30.55-25.49-21.79-36.41-47.01-40.69-58.85-.48,15.49.7,38.22,9.05,63.99,4.67,14.41,10.53,26.52,16.15,36.21,4.68,8.07,11.6,14.66,20.05,18.61,5.91,2.77,13.22,4.62,21.64,3.6,17.21-2.08,31.68-15.26,35.95-33.02Z"/>
          <path class="cls-2" d="M1730.93,29.2c-12.3-2.58-37.68-9.64-62.15-30.55-25.49-21.79-36.41-47.01-40.69-58.85-.48,15.49.7,38.22,9.05,63.99,4.67,14.41,10.53,26.52,16.15,36.21,4.68,8.07,11.6,14.66,20.05,18.61,5.91,2.77,13.22,4.62,21.64,3.6,17.21-2.08,31.68-15.26,35.95-33.02Z"/>
          <path class="cls-2" d="M1878.93,29.2c-12.3-2.58-37.68-9.64-62.15-30.55-25.49-21.79-36.41-47.01-40.69-58.85-.48,15.49.7,38.22,9.05,63.99,4.67,14.41,10.53,26.52,16.15,36.21,4.68,8.07,11.6,14.66,20.05,18.61,5.91,2.77,13.22,4.62,21.64,3.6,17.21-2.08,31.68-15.26,35.95-33.02Z"/>
          <g>
            <path class="cls-2" d="M102.93,174.86c-12.3-2.58-37.68-9.64-62.15-30.55C15.29,122.53,4.37,97.31.09,85.46c-.48,15.49.7,38.22,9.05,63.99,4.67,14.41,10.53,26.52,16.15,36.21,4.68,8.07,11.6,14.66,20.05,18.61,5.91,2.77,13.22,4.62,21.64,3.6,17.21-2.08,31.68-15.26,35.95-33.02Z"/>
            <path class="cls-2" d="M41.07,104.84c12.3-2.58,37.68-9.64,62.15-30.55,25.49-21.79,36.41-47.01,40.69-58.85.48,15.49-.7,38.22-9.05,63.99-4.67,14.41-10.53,26.52-16.15,36.21-4.68,8.07-11.6,14.66-20.05,18.61-5.91,2.77-13.22,4.62-21.64,3.6-17.21-2.08-31.68-15.26-35.95-33.02Z"/>
          </g>
          <g>
            <path class="cls-2" d="M250.93,174.86c-12.3-2.58-37.68-9.64-62.15-30.55-25.49-21.79-36.41-47.01-40.69-58.85-.48,15.49.7,38.22,9.05,63.99,4.67,14.41,10.53,26.52,16.15,36.21,4.68,8.07,11.6,14.66,20.05,18.61,5.91,2.77,13.22,4.62,21.64,3.6,17.21-2.08,31.68-15.26,35.95-33.02Z"/>
            <path class="cls-2" d="M189.07,104.84c12.3-2.58,37.68-9.64,62.15-30.55,25.49-21.79,36.41-47.01,40.69-58.85.48,15.49-.7,38.22-9.05,63.99-4.67,14.41-10.53,26.52-16.15,36.21-4.68,8.07-11.6,14.66-20.05,18.61-5.91,2.77-13.22,4.62-21.64,3.6-17.21-2.08-31.68-15.26-35.95-33.02Z"/>
          </g>
          <g>
            <path class="cls-2" d="M398.93,174.86c-12.3-2.58-37.68-9.64-62.15-30.55-25.49-21.79-36.41-47.01-40.69-58.85-.48,15.49.7,38.22,9.05,63.99,4.67,14.41,10.53,26.52,16.15,36.21,4.68,8.07,11.6,14.66,20.05,18.61,5.91,2.77,13.22,4.62,21.64,3.6,17.21-2.08,31.68-15.26,35.95-33.02Z"/>
            <path class="cls-2" d="M337.07,104.84c12.3-2.58,37.68-9.64,62.15-30.55,25.49-21.79,36.41-47.01,40.69-58.85.48,15.49-.7,38.22-9.05,63.99-4.67,14.41-10.53,26.52-16.15,36.21-4.68,8.07-11.6,14.66-20.05,18.61-5.91,2.77-13.22,4.62-21.64,3.6-17.21-2.08-31.68-15.26-35.95-33.02Z"/>
          </g>
          <g>
            <path class="cls-2" d="M546.93,174.86c-12.3-2.58-37.68-9.64-62.15-30.55-25.49-21.79-36.41-47.01-40.69-58.85-.48,15.49.7,38.22,9.05,63.99,4.67,14.41,10.53,26.52,16.15,36.21,4.68,8.07,11.6,14.66,20.05,18.61,5.91,2.77,13.22,4.62,21.64,3.6,17.21-2.08,31.68-15.26,35.95-33.02Z"/>
            <path class="cls-2" d="M485.07,104.84c12.3-2.58,37.68-9.64,62.15-30.55,25.49-21.79,36.41-47.01,40.69-58.85.48,15.49-.7,38.22-9.05,63.99-4.67,14.41-10.53,26.52-16.15,36.21-4.68,8.07-11.6,14.66-20.05,18.61-5.91,2.77-13.22,4.62-21.64,3.6-17.21-2.08-31.68-15.26-35.95-33.02Z"/>
          </g>
          <g>
            <path class="cls-2" d="M694.93,174.86c-12.3-2.58-37.68-9.64-62.15-30.55-25.49-21.79-36.41-47.01-40.69-58.85-.48,15.49.7,38.22,9.05,63.99,4.67,14.41,10.53,26.52,16.15,36.21,4.68,8.07,11.6,14.66,20.05,18.61,5.91,2.77,13.22,4.62,21.64,3.6,17.21-2.08,31.68-15.26,35.95-33.02Z"/>
            <path class="cls-2" d="M633.07,104.84c12.3-2.58,37.68-9.64,62.15-30.55,25.49-21.79,36.41-47.01,40.69-58.85.48,15.49-.7,38.22-9.05,63.99-4.67,14.41-10.53,26.52-16.15,36.21-4.68,8.07-11.6,14.66-20.05,18.61-5.91,2.77-13.22,4.62-21.64,3.6-17.21-2.08-31.68-15.26-35.95-33.02Z"/>
          </g>
          <g>
            <path class="cls-2" d="M842.93,174.86c-12.3-2.58-37.68-9.64-62.15-30.55-25.49-21.79-36.41-47.01-40.69-58.85-.48,15.49.7,38.22,9.05,63.99,4.67,14.41,10.53,26.52,16.15,36.21,4.68,8.07,11.6,14.66,20.05,18.61,5.91,2.77,13.22,4.62,21.64,3.6,17.21-2.08,31.68-15.26,35.95-33.02Z"/>
            <path class="cls-2" d="M781.07,104.84c12.3-2.58,37.68-9.64,62.15-30.55,25.49-21.79,36.41-47.01,40.69-58.85.48,15.49-.7,38.22-9.05,63.99-4.67,14.41-10.53,26.52-16.15,36.21-4.68,8.07-11.6,14.66-20.05,18.61-5.91,2.77-13.22,4.62-21.64,3.6-17.21-2.08-31.68-15.26-35.95-33.02Z"/>
          </g>
          <g>
            <path class="cls-2" d="M990.93,174.86c-12.3-2.58-37.68-9.64-62.15-30.55-25.49-21.79-36.41-47.01-40.69-58.85-.48,15.49.7,38.22,9.05,63.99,4.67,14.41,10.53,26.52,16.15,36.21,4.68,8.07,11.6,14.66,20.05,18.61,5.91,2.77,13.22,4.62,21.64,3.6,17.21-2.08,31.68-15.26,35.95-33.02Z"/>
            <path class="cls-2" d="M929.07,104.84c12.3-2.58,37.68-9.64,62.15-30.55,25.49-21.79,36.41-47.01,40.69-58.85.48,15.49-.7,38.22-9.05,63.99-4.67,14.41-10.53,26.52-16.15,36.21-4.68,8.07-11.6,14.66-20.05,18.61-5.91,2.77-13.22,4.62-21.64,3.6-17.21-2.08-31.68-15.26-35.95-33.02Z"/>
          </g>
          <g>
            <path class="cls-2" d="M1138.93,174.86c-12.3-2.58-37.68-9.64-62.15-30.55-25.49-21.79-36.41-47.01-40.69-58.85-.48,15.49.7,38.22,9.05,63.99,4.67,14.41,10.53,26.52,16.15,36.21,4.68,8.07,11.6,14.66,20.05,18.61,5.91,2.77,13.22,4.62,21.64,3.6,17.21-2.08,31.68-15.26,35.95-33.02Z"/>
            <path class="cls-2" d="M1077.07,104.84c12.3-2.58,37.68-9.64,62.15-30.55,25.49-21.79,36.41-47.01,40.69-58.85.48,15.49-.7,38.22-9.05,63.99-4.67,14.41-10.53,26.52-16.15,36.21-4.68,8.07-11.6,14.66-20.05,18.61-5.91,2.77-13.22,4.62-21.64,3.6-17.21-2.08-31.68-15.26-35.95-33.02Z"/>
          </g>
          <g>
            <path class="cls-2" d="M1286.93,174.86c-12.3-2.58-37.68-9.64-62.15-30.55-25.49-21.79-36.41-47.01-40.69-58.85-.48,15.49.7,38.22,9.05,63.99,4.67,14.41,10.53,26.52,16.15,36.21,4.68,8.07,11.6,14.66,20.05,18.61,5.91,2.77,13.22,4.62,21.64,3.6,17.21-2.08,31.68-15.26,35.95-33.02Z"/>
            <path class="cls-2" d="M1225.07,104.84c12.3-2.58,37.68-9.64,62.15-30.55,25.49-21.79,36.41-47.01,40.69-58.85.48,15.49-.7,38.22-9.05,63.99-4.67,14.41-10.53,26.52-16.15,36.21-4.68,8.07-11.6,14.66-20.05,18.61-5.91,2.77-13.22,4.62-21.64,3.6-17.21-2.08-31.68-15.26-35.95-33.02Z"/>
          </g>
          <g>
            <path class="cls-2" d="M1434.93,174.86c-12.3-2.58-37.68-9.64-62.15-30.55-25.49-21.79-36.41-47.01-40.69-58.85-.48,15.49.7,38.22,9.05,63.99,4.67,14.41,10.53,26.52,16.15,36.21,4.68,8.07,11.6,14.66,20.05,18.61,5.91,2.77,13.22,4.62,21.64,3.6,17.21-2.08,31.68-15.26,35.95-33.02Z"/>
            <path class="cls-2" d="M1373.07,104.84c12.3-2.58,37.68-9.64,62.15-30.55,25.49-21.79,36.41-47.01,40.69-58.85.48,15.49-.7,38.22-9.05,63.99-4.67,14.41-10.53,26.52-16.15,36.21-4.68,8.07-11.6,14.66-20.05,18.61-5.91,2.77-13.22,4.62-21.64,3.6-17.21-2.08-31.68-15.26-35.95-33.02Z"/>
          </g>
          <g>
            <path class="cls-2" d="M1582.93,174.86c-12.3-2.58-37.68-9.64-62.15-30.55-25.49-21.79-36.41-47.01-40.69-58.85-.48,15.49.7,38.22,9.05,63.99,4.67,14.41,10.53,26.52,16.15,36.21,4.68,8.07,11.6,14.66,20.05,18.61,5.91,2.77,13.22,4.62,21.64,3.6,17.21-2.08,31.68-15.26,35.95-33.02Z"/>
            <path class="cls-2" d="M1521.07,104.84c12.3-2.58,37.68-9.64,62.15-30.55,25.49-21.79,36.41-47.01,40.69-58.85.48,15.49-.7,38.22-9.05,63.99-4.67,14.41-10.53,26.52-16.15,36.21-4.68,8.07-11.6,14.66-20.05,18.61-5.91,2.77-13.22,4.62-21.64,3.6-17.21-2.08-31.68-15.26-35.95-33.02Z"/>
          </g>
          <g>
            <path class="cls-2" d="M1730.93,174.86c-12.3-2.58-37.68-9.64-62.15-30.55-25.49-21.79-36.41-47.01-40.69-58.85-.48,15.49.7,38.22,9.05,63.99,4.67,14.41,10.53,26.52,16.15,36.21,4.68,8.07,11.6,14.66,20.05,18.61,5.91,2.77,13.22,4.62,21.64,3.6,17.21-2.08,31.68-15.26,35.95-33.02Z"/>
            <path class="cls-2" d="M1669.07,104.84c12.3-2.58,37.68-9.64,62.15-30.55,25.49-21.79,36.41-47.01,40.69-58.85.48,15.49-.7,38.22-9.05,63.99-4.67,14.41-10.53,26.52-16.15,36.21-4.68,8.07-11.6,14.66-20.05,18.61-5.91,2.77-13.22,4.62-21.64,3.6-17.21-2.08-31.68-15.26-35.95-33.02Z"/>
          </g>
          <g>
            <path class="cls-2" d="M1878.93,174.86c-12.3-2.58-37.68-9.64-62.15-30.55-25.49-21.79-36.41-47.01-40.69-58.85-.48,15.49.7,38.22,9.05,63.99,4.67,14.41,10.53,26.52,16.15,36.21,4.68,8.07,11.6,14.66,20.05,18.61,5.91,2.77,13.22,4.62,21.64,3.6,17.21-2.08,31.68-15.26,35.95-33.02Z"/>
            <path class="cls-2" d="M1817.07,104.84c12.3-2.58,37.68-9.64,62.15-30.55,25.49-21.79,36.41-47.01,40.69-58.85.48,15.49-.7,38.22-9.05,63.99-4.67,14.41-10.53,26.52-16.15,36.21-4.68,8.07-11.6,14.66-20.05,18.61-5.91,2.77-13.22,4.62-21.64,3.6-17.21-2.08-31.68-15.26-35.95-33.02Z"/>
          </g>
          <g>
            <path class="cls-2" d="M102.93,320.53c-12.3-2.58-37.68-9.64-62.15-30.55C15.29,268.19,4.37,242.97.09,231.13c-.48,15.49.7,38.22,9.05,63.99,4.67,14.41,10.53,26.52,16.15,36.21,4.68,8.07,11.6,14.66,20.05,18.61,5.91,2.77,13.22,4.62,21.64,3.6,17.21-2.08,31.68-15.26,35.95-33.02Z"/>
            <path class="cls-2" d="M41.07,250.51c12.3-2.58,37.68-9.64,62.15-30.55,25.49-21.79,36.41-47.01,40.69-58.85.48,15.49-.7,38.22-9.05,63.99-4.67,14.41-10.53,26.52-16.15,36.21-4.68,8.07-11.6,14.66-20.05,18.61-5.91,2.77-13.22,4.62-21.64,3.6-17.21-2.08-31.68-15.26-35.95-33.02Z"/>
          </g>
          <g>
            <path class="cls-2" d="M250.93,320.53c-12.3-2.58-37.68-9.64-62.15-30.55-25.49-21.79-36.41-47.01-40.69-58.85-.48,15.49.7,38.22,9.05,63.99,4.67,14.41,10.53,26.52,16.15,36.21,4.68,8.07,11.6,14.66,20.05,18.61,5.91,2.77,13.22,4.62,21.64,3.6,17.21-2.08,31.68-15.26,35.95-33.02Z"/>
            <path class="cls-2" d="M189.07,250.51c12.3-2.58,37.68-9.64,62.15-30.55,25.49-21.79,36.41-47.01,40.69-58.85.48,15.49-.7,38.22-9.05,63.99-4.67,14.41-10.53,26.52-16.15,36.21-4.68,8.07-11.6,14.66-20.05,18.61-5.91,2.77-13.22,4.62-21.64,3.6-17.21-2.08-31.68-15.26-35.95-33.02Z"/>
          </g>
          <g>
            <path class="cls-2" d="M398.93,320.53c-12.3-2.58-37.68-9.64-62.15-30.55-25.49-21.79-36.41-47.01-40.69-58.85-.48,15.49.7,38.22,9.05,63.99,4.67,14.41,10.53,26.52,16.15,36.21,4.68,8.07,11.6,14.66,20.05,18.61,5.91,2.77,13.22,4.62,21.64,3.6,17.21-2.08,31.68-15.26,35.95-33.02Z"/>
            <path class="cls-2" d="M337.07,250.51c12.3-2.58,37.68-9.64,62.15-30.55,25.49-21.79,36.41-47.01,40.69-58.85.48,15.49-.7,38.22-9.05,63.99-4.67,14.41-10.53,26.52-16.15,36.21-4.68,8.07-11.6,14.66-20.05,18.61-5.91,2.77-13.22,4.62-21.64,3.6-17.21-2.08-31.68-15.26-35.95-33.02Z"/>
          </g>
          <g>
            <path class="cls-2" d="M546.93,320.53c-12.3-2.58-37.68-9.64-62.15-30.55-25.49-21.79-36.41-47.01-40.69-58.85-.48,15.49.7,38.22,9.05,63.99,4.67,14.41,10.53,26.52,16.15,36.21,4.68,8.07,11.6,14.66,20.05,18.61,5.91,2.77,13.22,4.62,21.64,3.6,17.21-2.08,31.68-15.26,35.95-33.02Z"/>
            <path class="cls-2" d="M485.07,250.51c12.3-2.58,37.68-9.64,62.15-30.55,25.49-21.79,36.41-47.01,40.69-58.85.48,15.49-.7,38.22-9.05,63.99-4.67,14.41-10.53,26.52-16.15,36.21-4.68,8.07-11.6,14.66-20.05,18.61-5.91,2.77-13.22,4.62-21.64,3.6-17.21-2.08-31.68-15.26-35.95-33.02Z"/>
          </g>
          <g>
            <path class="cls-2" d="M694.93,320.53c-12.3-2.58-37.68-9.64-62.15-30.55-25.49-21.79-36.41-47.01-40.69-58.85-.48,15.49.7,38.22,9.05,63.99,4.67,14.41,10.53,26.52,16.15,36.21,4.68,8.07,11.6,14.66,20.05,18.61,5.91,2.77,13.22,4.62,21.64,3.6,17.21-2.08,31.68-15.26,35.95-33.02Z"/>
            <path class="cls-2" d="M633.07,250.51c12.3-2.58,37.68-9.64,62.15-30.55,25.49-21.79,36.41-47.01,40.69-58.85.48,15.49-.7,38.22-9.05,63.99-4.67,14.41-10.53,26.52-16.15,36.21-4.68,8.07-11.6,14.66-20.05,18.61-5.91,2.77-13.22,4.62-21.64,3.6-17.21-2.08-31.68-15.26-35.95-33.02Z"/>
          </g>
          <g>
            <path class="cls-2" d="M842.93,320.53c-12.3-2.58-37.68-9.64-62.15-30.55-25.49-21.79-36.41-47.01-40.69-58.85-.48,15.49.7,38.22,9.05,63.99,4.67,14.41,10.53,26.52,16.15,36.21,4.68,8.07,11.6,14.66,20.05,18.61,5.91,2.77,13.22,4.62,21.64,3.6,17.21-2.08,31.68-15.26,35.95-33.02Z"/>
            <path class="cls-2" d="M781.07,250.51c12.3-2.58,37.68-9.64,62.15-30.55,25.49-21.79,36.41-47.01,40.69-58.85.48,15.49-.7,38.22-9.05,63.99-4.67,14.41-10.53,26.52-16.15,36.21-4.68,8.07-11.6,14.66-20.05,18.61-5.91,2.77-13.22,4.62-21.64,3.6-17.21-2.08-31.68-15.26-35.95-33.02Z"/>
          </g>
          <g>
            <path class="cls-2" d="M990.93,320.53c-12.3-2.58-37.68-9.64-62.15-30.55-25.49-21.79-36.41-47.01-40.69-58.85-.48,15.49.7,38.22,9.05,63.99,4.67,14.41,10.53,26.52,16.15,36.21,4.68,8.07,11.6,14.66,20.05,18.61,5.91,2.77,13.22,4.62,21.64,3.6,17.21-2.08,31.68-15.26,35.95-33.02Z"/>
            <path class="cls-2" d="M929.07,250.51c12.3-2.58,37.68-9.64,62.15-30.55,25.49-21.79,36.41-47.01,40.69-58.85.48,15.49-.7,38.22-9.05,63.99-4.67,14.41-10.53,26.52-16.15,36.21-4.68,8.07-11.6,14.66-20.05,18.61-5.91,2.77-13.22,4.62-21.64,3.6-17.21-2.08-31.68-15.26-35.95-33.02Z"/>
          </g>
          <g>
            <path class="cls-2" d="M1138.93,320.53c-12.3-2.58-37.68-9.64-62.15-30.55-25.49-21.79-36.41-47.01-40.69-58.85-.48,15.49.7,38.22,9.05,63.99,4.67,14.41,10.53,26.52,16.15,36.21,4.68,8.07,11.6,14.66,20.05,18.61,5.91,2.77,13.22,4.62,21.64,3.6,17.21-2.08,31.68-15.26,35.95-33.02Z"/>
            <path class="cls-2" d="M1077.07,250.51c12.3-2.58,37.68-9.64,62.15-30.55,25.49-21.79,36.41-47.01,40.69-58.85.48,15.49-.7,38.22-9.05,63.99-4.67,14.41-10.53,26.52-16.15,36.21-4.68,8.07-11.6,14.66-20.05,18.61-5.91,2.77-13.22,4.62-21.64,3.6-17.21-2.08-31.68-15.26-35.95-33.02Z"/>
          </g>
          <g>
            <path class="cls-2" d="M1286.93,320.53c-12.3-2.58-37.68-9.64-62.15-30.55-25.49-21.79-36.41-47.01-40.69-58.85-.48,15.49.7,38.22,9.05,63.99,4.67,14.41,10.53,26.52,16.15,36.21,4.68,8.07,11.6,14.66,20.05,18.61,5.91,2.77,13.22,4.62,21.64,3.6,17.21-2.08,31.68-15.26,35.95-33.02Z"/>
            <path class="cls-2" d="M1225.07,250.51c12.3-2.58,37.68-9.64,62.15-30.55,25.49-21.79,36.41-47.01,40.69-58.85.48,15.49-.7,38.22-9.05,63.99-4.67,14.41-10.53,26.52-16.15,36.21-4.68,8.07-11.6,14.66-20.05,18.61-5.91,2.77-13.22,4.62-21.64,3.6-17.21-2.08-31.68-15.26-35.95-33.02Z"/>
          </g>
          <g>
            <path class="cls-2" d="M1434.93,320.53c-12.3-2.58-37.68-9.64-62.15-30.55-25.49-21.79-36.41-47.01-40.69-58.85-.48,15.49.7,38.22,9.05,63.99,4.67,14.41,10.53,26.52,16.15,36.21,4.68,8.07,11.6,14.66,20.05,18.61,5.91,2.77,13.22,4.62,21.64,3.6,17.21-2.08,31.68-15.26,35.95-33.02Z"/>
            <path class="cls-2" d="M1373.07,250.51c12.3-2.58,37.68-9.64,62.15-30.55,25.49-21.79,36.41-47.01,40.69-58.85.48,15.49-.7,38.22-9.05,63.99-4.67,14.41-10.53,26.52-16.15,36.21-4.68,8.07-11.6,14.66-20.05,18.61-5.91,2.77-13.22,4.62-21.64,3.6-17.21-2.08-31.68-15.26-35.95-33.02Z"/>
          </g>
          <g>
            <path class="cls-2" d="M1582.93,320.53c-12.3-2.58-37.68-9.64-62.15-30.55-25.49-21.79-36.41-47.01-40.69-58.85-.48,15.49.7,38.22,9.05,63.99,4.67,14.41,10.53,26.52,16.15,36.21,4.68,8.07,11.6,14.66,20.05,18.61,5.91,2.77,13.22,4.62,21.64,3.6,17.21-2.08,31.68-15.26,35.95-33.02Z"/>
            <path class="cls-2" d="M1521.07,250.51c12.3-2.58,37.68-9.64,62.15-30.55,25.49-21.79,36.41-47.01,40.69-58.85.48,15.49-.7,38.22-9.05,63.99-4.67,14.41-10.53,26.52-16.15,36.21-4.68,8.07-11.6,14.66-20.05,18.61-5.91,2.77-13.22,4.62-21.64,3.6-17.21-2.08-31.68-15.26-35.95-33.02Z"/>
          </g>
          <g>
            <path class="cls-2" d="M1730.93,320.53c-12.3-2.58-37.68-9.64-62.15-30.55-25.49-21.79-36.41-47.01-40.69-58.85-.48,15.49.7,38.22,9.05,63.99,4.67,14.41,10.53,26.52,16.15,36.21,4.68,8.07,11.6,14.66,20.05,18.61,5.91,2.77,13.22,4.62,21.64,3.6,17.21-2.08,31.68-15.26,35.95-33.02Z"/>
            <path class="cls-2" d="M1669.07,250.51c12.3-2.58,37.68-9.64,62.15-30.55,25.49-21.79,36.41-47.01,40.69-58.85.48,15.49-.7,38.22-9.05,63.99-4.67,14.41-10.53,26.52-16.15,36.21-4.68,8.07-11.6,14.66-20.05,18.61-5.91,2.77-13.22,4.62-21.64,3.6-17.21-2.08-31.68-15.26-35.95-33.02Z"/>
          </g>
          <g>
            <path class="cls-2" d="M1878.93,320.53c-12.3-2.58-37.68-9.64-62.15-30.55-25.49-21.79-36.41-47.01-40.69-58.85-.48,15.49.7,38.22,9.05,63.99,4.67,14.41,10.53,26.52,16.15,36.21,4.68,8.07,11.6,14.66,20.05,18.61,5.91,2.77,13.22,4.62,21.64,3.6,17.21-2.08,31.68-15.26,35.95-33.02Z"/>
            <path class="cls-2" d="M1817.07,250.51c12.3-2.58,37.68-9.64,62.15-30.55,25.49-21.79,36.41-47.01,40.69-58.85.48,15.49-.7,38.22-9.05,63.99-4.67,14.41-10.53,26.52-16.15,36.21-4.68,8.07-11.6,14.66-20.05,18.61-5.91,2.77-13.22,4.62-21.64,3.6-17.21-2.08-31.68-15.26-35.95-33.02Z"/>
          </g>
          <g>
            <path class="cls-2" d="M102.93,466.19c-12.3-2.58-37.68-9.64-62.15-30.55C15.29,413.86,4.37,388.64.09,376.79c-.48,15.49.7,38.22,9.05,63.99,4.67,14.41,10.53,26.52,16.15,36.21,4.68,8.07,11.6,14.66,20.05,18.61,5.91,2.77,13.22,4.62,21.64,3.6,17.21-2.08,31.68-15.26,35.95-33.02Z"/>
            <path class="cls-2" d="M41.07,396.17c12.3-2.58,37.68-9.64,62.15-30.55,25.49-21.79,36.41-47.01,40.69-58.85.48,15.49-.7,38.22-9.05,63.99-4.67,14.41-10.53,26.52-16.15,36.21-4.68,8.07-11.6,14.66-20.05,18.61-5.91,2.77-13.22,4.62-21.64,3.6-17.21-2.08-31.68-15.26-35.95-33.02Z"/>
          </g>
          <g>
            <path class="cls-2" d="M250.93,466.19c-12.3-2.58-37.68-9.64-62.15-30.55-25.49-21.79-36.41-47.01-40.69-58.85-.48,15.49.7,38.22,9.05,63.99,4.67,14.41,10.53,26.52,16.15,36.21,4.68,8.07,11.6,14.66,20.05,18.61,5.91,2.77,13.22,4.62,21.64,3.6,17.21-2.08,31.68-15.26,35.95-33.02Z"/>
            <path class="cls-2" d="M189.07,396.17c12.3-2.58,37.68-9.64,62.15-30.55,25.49-21.79,36.41-47.01,40.69-58.85.48,15.49-.7,38.22-9.05,63.99-4.67,14.41-10.53,26.52-16.15,36.21-4.68,8.07-11.6,14.66-20.05,18.61-5.91,2.77-13.22,4.62-21.64,3.6-17.21-2.08-31.68-15.26-35.95-33.02Z"/>
          </g>
          <g>
            <path class="cls-2" d="M398.93,466.19c-12.3-2.58-37.68-9.64-62.15-30.55-25.49-21.79-36.41-47.01-40.69-58.85-.48,15.49.7,38.22,9.05,63.99,4.67,14.41,10.53,26.52,16.15,36.21,4.68,8.07,11.6,14.66,20.05,18.61,5.91,2.77,13.22,4.62,21.64,3.6,17.21-2.08,31.68-15.26,35.95-33.02Z"/>
            <path class="cls-2" d="M337.07,396.17c12.3-2.58,37.68-9.64,62.15-30.55,25.49-21.79,36.41-47.01,40.69-58.85.48,15.49-.7,38.22-9.05,63.99-4.67,14.41-10.53,26.52-16.15,36.21-4.68,8.07-11.6,14.66-20.05,18.61-5.91,2.77-13.22,4.62-21.64,3.6-17.21-2.08-31.68-15.26-35.95-33.02Z"/>
          </g>
          <g>
            <path class="cls-2" d="M546.93,466.19c-12.3-2.58-37.68-9.64-62.15-30.55-25.49-21.79-36.41-47.01-40.69-58.85-.48,15.49.7,38.22,9.05,63.99,4.67,14.41,10.53,26.52,16.15,36.21,4.68,8.07,11.6,14.66,20.05,18.61,5.91,2.77,13.22,4.62,21.64,3.6,17.21-2.08,31.68-15.26,35.95-33.02Z"/>
            <path class="cls-2" d="M485.07,396.17c12.3-2.58,37.68-9.64,62.15-30.55,25.49-21.79,36.41-47.01,40.69-58.85.48,15.49-.7,38.22-9.05,63.99-4.67,14.41-10.53,26.52-16.15,36.21-4.68,8.07-11.6,14.66-20.05,18.61-5.91,2.77-13.22,4.62-21.64,3.6-17.21-2.08-31.68-15.26-35.95-33.02Z"/>
          </g>
          <g>
            <path class="cls-2" d="M694.93,466.19c-12.3-2.58-37.68-9.64-62.15-30.55-25.49-21.79-36.41-47.01-40.69-58.85-.48,15.49.7,38.22,9.05,63.99,4.67,14.41,10.53,26.52,16.15,36.21,4.68,8.07,11.6,14.66,20.05,18.61,5.91,2.77,13.22,4.62,21.64,3.6,17.21-2.08,31.68-15.26,35.95-33.02Z"/>
            <path class="cls-2" d="M633.07,396.17c12.3-2.58,37.68-9.64,62.15-30.55,25.49-21.79,36.41-47.01,40.69-58.85.48,15.49-.7,38.22-9.05,63.99-4.67,14.41-10.53,26.52-16.15,36.21-4.68,8.07-11.6,14.66-20.05,18.61-5.91,2.77-13.22,4.62-21.64,3.6-17.21-2.08-31.68-15.26-35.95-33.02Z"/>
          </g>
          <g>
            <path class="cls-2" d="M842.93,466.19c-12.3-2.58-37.68-9.64-62.15-30.55-25.49-21.79-36.41-47.01-40.69-58.85-.48,15.49.7,38.22,9.05,63.99,4.67,14.41,10.53,26.52,16.15,36.21,4.68,8.07,11.6,14.66,20.05,18.61,5.91,2.77,13.22,4.62,21.64,3.6,17.21-2.08,31.68-15.26,35.95-33.02Z"/>
            <path class="cls-2" d="M781.07,396.17c12.3-2.58,37.68-9.64,62.15-30.55,25.49-21.79,36.41-47.01,40.69-58.85.48,15.49-.7,38.22-9.05,63.99-4.67,14.41-10.53,26.52-16.15,36.21-4.68,8.07-11.6,14.66-20.05,18.61-5.91,2.77-13.22,4.62-21.64,3.6-17.21-2.08-31.68-15.26-35.95-33.02Z"/>
          </g>
          <g>
            <path class="cls-2" d="M990.93,466.19c-12.3-2.58-37.68-9.64-62.15-30.55-25.49-21.79-36.41-47.01-40.69-58.85-.48,15.49.7,38.22,9.05,63.99,4.67,14.41,10.53,26.52,16.15,36.21,4.68,8.07,11.6,14.66,20.05,18.61,5.91,2.77,13.22,4.62,21.64,3.6,17.21-2.08,31.68-15.26,35.95-33.02Z"/>
            <path class="cls-2" d="M929.07,396.17c12.3-2.58,37.68-9.64,62.15-30.55,25.49-21.79,36.41-47.01,40.69-58.85.48,15.49-.7,38.22-9.05,63.99-4.67,14.41-10.53,26.52-16.15,36.21-4.68,8.07-11.6,14.66-20.05,18.61-5.91,2.77-13.22,4.62-21.64,3.6-17.21-2.08-31.68-15.26-35.95-33.02Z"/>
          </g>
          <g>
            <path class="cls-2" d="M1138.93,466.19c-12.3-2.58-37.68-9.64-62.15-30.55-25.49-21.79-36.41-47.01-40.69-58.85-.48,15.49.7,38.22,9.05,63.99,4.67,14.41,10.53,26.52,16.15,36.21,4.68,8.07,11.6,14.66,20.05,18.61,5.91,2.77,13.22,4.62,21.64,3.6,17.21-2.08,31.68-15.26,35.95-33.02Z"/>
            <path class="cls-2" d="M1077.07,396.17c12.3-2.58,37.68-9.64,62.15-30.55,25.49-21.79,36.41-47.01,40.69-58.85.48,15.49-.7,38.22-9.05,63.99-4.67,14.41-10.53,26.52-16.15,36.21-4.68,8.07-11.6,14.66-20.05,18.61-5.91,2.77-13.22,4.62-21.64,3.6-17.21-2.08-31.68-15.26-35.95-33.02Z"/>
          </g>
          <g>
            <path class="cls-2" d="M1286.93,466.19c-12.3-2.58-37.68-9.64-62.15-30.55-25.49-21.79-36.41-47.01-40.69-58.85-.48,15.49.7,38.22,9.05,63.99,4.67,14.41,10.53,26.52,16.15,36.21,4.68,8.07,11.6,14.66,20.05,18.61,5.91,2.77,13.22,4.62,21.64,3.6,17.21-2.08,31.68-15.26,35.95-33.02Z"/>
            <path class="cls-2" d="M1225.07,396.17c12.3-2.58,37.68-9.64,62.15-30.55,25.49-21.79,36.41-47.01,40.69-58.85.48,15.49-.7,38.22-9.05,63.99-4.67,14.41-10.53,26.52-16.15,36.21-4.68,8.07-11.6,14.66-20.05,18.61-5.91,2.77-13.22,4.62-21.64,3.6-17.21-2.08-31.68-15.26-35.95-33.02Z"/>
          </g>
          <g>
            <path class="cls-2" d="M1434.93,466.19c-12.3-2.58-37.68-9.64-62.15-30.55-25.49-21.79-36.41-47.01-40.69-58.85-.48,15.49.7,38.22,9.05,63.99,4.67,14.41,10.53,26.52,16.15,36.21,4.68,8.07,11.6,14.66,20.05,18.61,5.91,2.77,13.22,4.62,21.64,3.6,17.21-2.08,31.68-15.26,35.95-33.02Z"/>
            <path class="cls-2" d="M1373.07,396.17c12.3-2.58,37.68-9.64,62.15-30.55,25.49-21.79,36.41-47.01,40.69-58.85.48,15.49-.7,38.22-9.05,63.99-4.67,14.41-10.53,26.52-16.15,36.21-4.68,8.07-11.6,14.66-20.05,18.61-5.91,2.77-13.22,4.62-21.64,3.6-17.21-2.08-31.68-15.26-35.95-33.02Z"/>
          </g>
          <g>
            <path class="cls-2" d="M1582.93,466.19c-12.3-2.58-37.68-9.64-62.15-30.55-25.49-21.79-36.41-47.01-40.69-58.85-.48,15.49.7,38.22,9.05,63.99,4.67,14.41,10.53,26.52,16.15,36.21,4.68,8.07,11.6,14.66,20.05,18.61,5.91,2.77,13.22,4.62,21.64,3.6,17.21-2.08,31.68-15.26,35.95-33.02Z"/>
            <path class="cls-2" d="M1521.07,396.17c12.3-2.58,37.68-9.64,62.15-30.55,25.49-21.79,36.41-47.01,40.69-58.85.48,15.49-.7,38.22-9.05,63.99-4.67,14.41-10.53,26.52-16.15,36.21-4.68,8.07-11.6,14.66-20.05,18.61-5.91,2.77-13.22,4.62-21.64,3.6-17.21-2.08-31.68-15.26-35.95-33.02Z"/>
          </g>
          <g>
            <path class="cls-2" d="M1730.93,466.19c-12.3-2.58-37.68-9.64-62.15-30.55-25.49-21.79-36.41-47.01-40.69-58.85-.48,15.49.7,38.22,9.05,63.99,4.67,14.41,10.53,26.52,16.15,36.21,4.68,8.07,11.6,14.66,20.05,18.61,5.91,2.77,13.22,4.62,21.64,3.6,17.21-2.08,31.68-15.26,35.95-33.02Z"/>
            <path class="cls-2" d="M1669.07,396.17c12.3-2.58,37.68-9.64,62.15-30.55,25.49-21.79,36.41-47.01,40.69-58.85.48,15.49-.7,38.22-9.05,63.99-4.67,14.41-10.53,26.52-16.15,36.21-4.68,8.07-11.6,14.66-20.05,18.61-5.91,2.77-13.22,4.62-21.64,3.6-17.21-2.08-31.68-15.26-35.95-33.02Z"/>
          </g>
          <g>
            <path class="cls-2" d="M1878.93,466.19c-12.3-2.58-37.68-9.64-62.15-30.55-25.49-21.79-36.41-47.01-40.69-58.85-.48,15.49.7,38.22,9.05,63.99,4.67,14.41,10.53,26.52,16.15,36.21,4.68,8.07,11.6,14.66,20.05,18.61,5.91,2.77,13.22,4.62,21.64,3.6,17.21-2.08,31.68-15.26,35.95-33.02Z"/>
            <path class="cls-2" d="M1817.07,396.17c12.3-2.58,37.68-9.64,62.15-30.55,25.49-21.79,36.41-47.01,40.69-58.85.48,15.49-.7,38.22-9.05,63.99-4.67,14.41-10.53,26.52-16.15,36.21-4.68,8.07-11.6,14.66-20.05,18.61-5.91,2.77-13.22,4.62-21.64,3.6-17.21-2.08-31.68-15.26-35.95-33.02Z"/>
          </g>
          <g>
            <path class="cls-2" d="M102.93,611.85c-12.3-2.58-37.68-9.64-62.15-30.55-25.49-21.79-36.41-47.01-40.69-58.85-.48,15.49.7,38.22,9.05,63.99,4.67,14.41,10.53,26.52,16.15,36.21,4.68,8.07,11.6,14.66,20.05,18.61,5.91,2.77,13.22,4.62,21.64,3.6,17.21-2.08,31.68-15.26,35.95-33.02Z"/>
            <path class="cls-2" d="M41.07,541.83c12.3-2.58,37.68-9.64,62.15-30.55,25.49-21.79,36.41-47.01,40.69-58.85.48,15.49-.7,38.22-9.05,63.99-4.67,14.41-10.53,26.52-16.15,36.21-4.68,8.07-11.6,14.66-20.05,18.61-5.91,2.77-13.22,4.62-21.64,3.6-17.21-2.08-31.68-15.26-35.95-33.02Z"/>
          </g>
          <g>
            <path class="cls-2" d="M250.93,611.85c-12.3-2.58-37.68-9.64-62.15-30.55-25.49-21.79-36.41-47.01-40.69-58.85-.48,15.49.7,38.22,9.05,63.99,4.67,14.41,10.53,26.52,16.15,36.21,4.68,8.07,11.6,14.66,20.05,18.61,5.91,2.77,13.22,4.62,21.64,3.6,17.21-2.08,31.68-15.26,35.95-33.02Z"/>
            <path class="cls-2" d="M189.07,541.83c12.3-2.58,37.68-9.64,62.15-30.55,25.49-21.79,36.41-47.01,40.69-58.85.48,15.49-.7,38.22-9.05,63.99-4.67,14.41-10.53,26.52-16.15,36.21-4.68,8.07-11.6,14.66-20.05,18.61-5.91,2.77-13.22,4.62-21.64,3.6-17.21-2.08-31.68-15.26-35.95-33.02Z"/>
          </g>
          <g>
            <path class="cls-2" d="M398.93,611.85c-12.3-2.58-37.68-9.64-62.15-30.55-25.49-21.79-36.41-47.01-40.69-58.85-.48,15.49.7,38.22,9.05,63.99,4.67,14.41,10.53,26.52,16.15,36.21,4.68,8.07,11.6,14.66,20.05,18.61,5.91,2.77,13.22,4.62,21.64,3.6,17.21-2.08,31.68-15.26,35.95-33.02Z"/>
            <path class="cls-2" d="M337.07,541.83c12.3-2.58,37.68-9.64,62.15-30.55,25.49-21.79,36.41-47.01,40.69-58.85.48,15.49-.7,38.22-9.05,63.99-4.67,14.41-10.53,26.52-16.15,36.21-4.68,8.07-11.6,14.66-20.05,18.61-5.91,2.77-13.22,4.62-21.64,3.6-17.21-2.08-31.68-15.26-35.95-33.02Z"/>
          </g>
          <g>
            <path class="cls-2" d="M546.93,611.85c-12.3-2.58-37.68-9.64-62.15-30.55-25.49-21.79-36.41-47.01-40.69-58.85-.48,15.49.7,38.22,9.05,63.99,4.67,14.41,10.53,26.52,16.15,36.21,4.68,8.07,11.6,14.66,20.05,18.61,5.91,2.77,13.22,4.62,21.64,3.6,17.21-2.08,31.68-15.26,35.95-33.02Z"/>
            <path class="cls-2" d="M485.07,541.83c12.3-2.58,37.68-9.64,62.15-30.55,25.49-21.79,36.41-47.01,40.69-58.85.48,15.49-.7,38.22-9.05,63.99-4.67,14.41-10.53,26.52-16.15,36.21-4.68,8.07-11.6,14.66-20.05,18.61-5.91,2.77-13.22,4.62-21.64,3.6-17.21-2.08-31.68-15.26-35.95-33.02Z"/>
          </g>
          <g>
            <path class="cls-2" d="M694.93,611.85c-12.3-2.58-37.68-9.64-62.15-30.55-25.49-21.79-36.41-47.01-40.69-58.85-.48,15.49.7,38.22,9.05,63.99,4.67,14.41,10.53,26.52,16.15,36.21,4.68,8.07,11.6,14.66,20.05,18.61,5.91,2.77,13.22,4.62,21.64,3.6,17.21-2.08,31.68-15.26,35.95-33.02Z"/>
            <path class="cls-2" d="M633.07,541.83c12.3-2.58,37.68-9.64,62.15-30.55,25.49-21.79,36.41-47.01,40.69-58.85.48,15.49-.7,38.22-9.05,63.99-4.67,14.41-10.53,26.52-16.15,36.21-4.68,8.07-11.6,14.66-20.05,18.61-5.91,2.77-13.22,4.62-21.64,3.6-17.21-2.08-31.68-15.26-35.95-33.02Z"/>
          </g>
          <g>
            <path class="cls-2" d="M842.93,611.85c-12.3-2.58-37.68-9.64-62.15-30.55-25.49-21.79-36.41-47.01-40.69-58.85-.48,15.49.7,38.22,9.05,63.99,4.67,14.41,10.53,26.52,16.15,36.21,4.68,8.07,11.6,14.66,20.05,18.61,5.91,2.77,13.22,4.62,21.64,3.6,17.21-2.08,31.68-15.26,35.95-33.02Z"/>
            <path class="cls-2" d="M781.07,541.83c12.3-2.58,37.68-9.64,62.15-30.55,25.49-21.79,36.41-47.01,40.69-58.85.48,15.49-.7,38.22-9.05,63.99-4.67,14.41-10.53,26.52-16.15,36.21-4.68,8.07-11.6,14.66-20.05,18.61-5.91,2.77-13.22,4.62-21.64,3.6-17.21-2.08-31.68-15.26-35.95-33.02Z"/>
          </g>
          <g>
            <path class="cls-2" d="M990.93,611.85c-12.3-2.58-37.68-9.64-62.15-30.55-25.49-21.79-36.41-47.01-40.69-58.85-.48,15.49.7,38.22,9.05,63.99,4.67,14.41,10.53,26.52,16.15,36.21,4.68,8.07,11.6,14.66,20.05,18.61,5.91,2.77,13.22,4.62,21.64,3.6,17.21-2.08,31.68-15.26,35.95-33.02Z"/>
            <path class="cls-2" d="M929.07,541.83c12.3-2.58,37.68-9.64,62.15-30.55,25.49-21.79,36.41-47.01,40.69-58.85.48,15.49-.7,38.22-9.05,63.99-4.67,14.41-10.53,26.52-16.15,36.21-4.68,8.07-11.6,14.66-20.05,18.61-5.91,2.77-13.22,4.62-21.64,3.6-17.21-2.08-31.68-15.26-35.95-33.02Z"/>
          </g>
          <g>
            <path class="cls-2" d="M1138.93,611.85c-12.3-2.58-37.68-9.64-62.15-30.55-25.49-21.79-36.41-47.01-40.69-58.85-.48,15.49.7,38.22,9.05,63.99,4.67,14.41,10.53,26.52,16.15,36.21,4.68,8.07,11.6,14.66,20.05,18.61,5.91,2.77,13.22,4.62,21.64,3.6,17.21-2.08,31.68-15.26,35.95-33.02Z"/>
            <path class="cls-2" d="M1077.07,541.83c12.3-2.58,37.68-9.64,62.15-30.55,25.49-21.79,36.41-47.01,40.69-58.85.48,15.49-.7,38.22-9.05,63.99-4.67,14.41-10.53,26.52-16.15,36.21-4.68,8.07-11.6,14.66-20.05,18.61-5.91,2.77-13.22,4.62-21.64,3.6-17.21-2.08-31.68-15.26-35.95-33.02Z"/>
          </g>
          <g>
            <path class="cls-2" d="M1286.93,611.85c-12.3-2.58-37.68-9.64-62.15-30.55-25.49-21.79-36.41-47.01-40.69-58.85-.48,15.49.7,38.22,9.05,63.99,4.67,14.41,10.53,26.52,16.15,36.21,4.68,8.07,11.6,14.66,20.05,18.61,5.91,2.77,13.22,4.62,21.64,3.6,17.21-2.08,31.68-15.26,35.95-33.02Z"/>
            <path class="cls-2" d="M1225.07,541.83c12.3-2.58,37.68-9.64,62.15-30.55,25.49-21.79,36.41-47.01,40.69-58.85.48,15.49-.7,38.22-9.05,63.99-4.67,14.41-10.53,26.52-16.15,36.21-4.68,8.07-11.6,14.66-20.05,18.61-5.91,2.77-13.22,4.62-21.64,3.6-17.21-2.08-31.68-15.26-35.95-33.02Z"/>
          </g>
          <g>
            <path class="cls-2" d="M1434.93,611.85c-12.3-2.58-37.68-9.64-62.15-30.55-25.49-21.79-36.41-47.01-40.69-58.85-.48,15.49.7,38.22,9.05,63.99,4.67,14.41,10.53,26.52,16.15,36.21,4.68,8.07,11.6,14.66,20.05,18.61,5.91,2.77,13.22,4.62,21.64,3.6,17.21-2.08,31.68-15.26,35.95-33.02Z"/>
            <path class="cls-2" d="M1373.07,541.83c12.3-2.58,37.68-9.64,62.15-30.55,25.49-21.79,36.41-47.01,40.69-58.85.48,15.49-.7,38.22-9.05,63.99-4.67,14.41-10.53,26.52-16.15,36.21-4.68,8.07-11.6,14.66-20.05,18.61-5.91,2.77-13.22,4.62-21.64,3.6-17.21-2.08-31.68-15.26-35.95-33.02Z"/>
          </g>
          <g>
            <path class="cls-2" d="M1582.93,611.85c-12.3-2.58-37.68-9.64-62.15-30.55-25.49-21.79-36.41-47.01-40.69-58.85-.48,15.49.7,38.22,9.05,63.99,4.67,14.41,10.53,26.52,16.15,36.21,4.68,8.07,11.6,14.66,20.05,18.61,5.91,2.77,13.22,4.62,21.64,3.6,17.21-2.08,31.68-15.26,35.95-33.02Z"/>
            <path class="cls-2" d="M1521.07,541.83c12.3-2.58,37.68-9.64,62.15-30.55,25.49-21.79,36.41-47.01,40.69-58.85.48,15.49-.7,38.22-9.05,63.99-4.67,14.41-10.53,26.52-16.15,36.21-4.68,8.07-11.6,14.66-20.05,18.61-5.91,2.77-13.22,4.62-21.64,3.6-17.21-2.08-31.68-15.26-35.95-33.02Z"/>
          </g>
          <g>
            <path class="cls-2" d="M1730.93,611.85c-12.3-2.58-37.68-9.64-62.15-30.55-25.49-21.79-36.41-47.01-40.69-58.85-.48,15.49.7,38.22,9.05,63.99,4.67,14.41,10.53,26.52,16.15,36.21,4.68,8.07,11.6,14.66,20.05,18.61,5.91,2.77,13.22,4.62,21.64,3.6,17.21-2.08,31.68-15.26,35.95-33.02Z"/>
            <path class="cls-2" d="M1669.07,541.83c12.3-2.58,37.68-9.64,62.15-30.55,25.49-21.79,36.41-47.01,40.69-58.85.48,15.49-.7,38.22-9.05,63.99-4.67,14.41-10.53,26.52-16.15,36.21-4.68,8.07-11.6,14.66-20.05,18.61-5.91,2.77-13.22,4.62-21.64,3.6-17.21-2.08-31.68-15.26-35.95-33.02Z"/>
          </g>
          <g>
            <path class="cls-2" d="M1878.93,611.85c-12.3-2.58-37.68-9.64-62.15-30.55-25.49-21.79-36.41-47.01-40.69-58.85-.48,15.49.7,38.22,9.05,63.99,4.67,14.41,10.53,26.52,16.15,36.21,4.68,8.07,11.6,14.66,20.05,18.61,5.91,2.77,13.22,4.62,21.64,3.6,17.21-2.08,31.68-15.26,35.95-33.02Z"/>
            <path class="cls-2" d="M1817.07,541.83c12.3-2.58,37.68-9.64,62.15-30.55,25.49-21.79,36.41-47.01,40.69-58.85.48,15.49-.7,38.22-9.05,63.99-4.67,14.41-10.53,26.52-16.15,36.21-4.68,8.07-11.6,14.66-20.05,18.61-5.91,2.77-13.22,4.62-21.64,3.6-17.21-2.08-31.68-15.26-35.95-33.02Z"/>
          </g>
          <g>
            <path class="cls-2" d="M102.93,757.52c-12.3-2.58-37.68-9.64-62.15-30.55-25.49-21.79-36.41-47.01-40.69-58.85-.48,15.49.7,38.22,9.05,63.99,4.67,14.41,10.53,26.52,16.15,36.21,4.68,8.07,11.6,14.66,20.05,18.61,5.91,2.77,13.22,4.62,21.64,3.6,17.21-2.08,31.68-15.26,35.95-33.02Z"/>
            <path class="cls-2" d="M41.07,687.5c12.3-2.58,37.68-9.64,62.15-30.55,25.49-21.79,36.41-47.01,40.69-58.85.48,15.49-.7,38.22-9.05,63.99-4.67,14.41-10.53,26.52-16.15,36.21-4.68,8.07-11.6,14.66-20.05,18.61-5.91,2.77-13.22,4.62-21.64,3.6-17.21-2.08-31.68-15.26-35.95-33.02Z"/>
          </g>
          <g>
            <path class="cls-2" d="M250.93,757.52c-12.3-2.58-37.68-9.64-62.15-30.55-25.49-21.79-36.41-47.01-40.69-58.85-.48,15.49.7,38.22,9.05,63.99,4.67,14.41,10.53,26.52,16.15,36.21,4.68,8.07,11.6,14.66,20.05,18.61,5.91,2.77,13.22,4.62,21.64,3.6,17.21-2.08,31.68-15.26,35.95-33.02Z"/>
            <path class="cls-2" d="M189.07,687.5c12.3-2.58,37.68-9.64,62.15-30.55,25.49-21.79,36.41-47.01,40.69-58.85.48,15.49-.7,38.22-9.05,63.99-4.67,14.41-10.53,26.52-16.15,36.21-4.68,8.07-11.6,14.66-20.05,18.61-5.91,2.77-13.22,4.62-21.64,3.6-17.21-2.08-31.68-15.26-35.95-33.02Z"/>
          </g>
          <g>
            <path class="cls-2" d="M398.93,757.52c-12.3-2.58-37.68-9.64-62.15-30.55-25.49-21.79-36.41-47.01-40.69-58.85-.48,15.49.7,38.22,9.05,63.99,4.67,14.41,10.53,26.52,16.15,36.21,4.68,8.07,11.6,14.66,20.05,18.61,5.91,2.77,13.22,4.62,21.64,3.6,17.21-2.08,31.68-15.26,35.95-33.02Z"/>
            <path class="cls-2" d="M337.07,687.5c12.3-2.58,37.68-9.64,62.15-30.55,25.49-21.79,36.41-47.01,40.69-58.85.48,15.49-.7,38.22-9.05,63.99-4.67,14.41-10.53,26.52-16.15,36.21-4.68,8.07-11.6,14.66-20.05,18.61-5.91,2.77-13.22,4.62-21.64,3.6-17.21-2.08-31.68-15.26-35.95-33.02Z"/>
          </g>
          <g>
            <path class="cls-2" d="M546.93,757.52c-12.3-2.58-37.68-9.64-62.15-30.55-25.49-21.79-36.41-47.01-40.69-58.85-.48,15.49.7,38.22,9.05,63.99,4.67,14.41,10.53,26.52,16.15,36.21,4.68,8.07,11.6,14.66,20.05,18.61,5.91,2.77,13.22,4.62,21.64,3.6,17.21-2.08,31.68-15.26,35.95-33.02Z"/>
            <path class="cls-2" d="M485.07,687.5c12.3-2.58,37.68-9.64,62.15-30.55,25.49-21.79,36.41-47.01,40.69-58.85.48,15.49-.7,38.22-9.05,63.99-4.67,14.41-10.53,26.52-16.15,36.21-4.68,8.07-11.6,14.66-20.05,18.61-5.91,2.77-13.22,4.62-21.64,3.6-17.21-2.08-31.68-15.26-35.95-33.02Z"/>
          </g>
          <g>
            <path class="cls-2" d="M694.93,757.52c-12.3-2.58-37.68-9.64-62.15-30.55-25.49-21.79-36.41-47.01-40.69-58.85-.48,15.49.7,38.22,9.05,63.99,4.67,14.41,10.53,26.52,16.15,36.21,4.68,8.07,11.6,14.66,20.05,18.61,5.91,2.77,13.22,4.62,21.64,3.6,17.21-2.08,31.68-15.26,35.95-33.02Z"/>
            <path class="cls-2" d="M633.07,687.5c12.3-2.58,37.68-9.64,62.15-30.55,25.49-21.79,36.41-47.01,40.69-58.85.48,15.49-.7,38.22-9.05,63.99-4.67,14.41-10.53,26.52-16.15,36.21-4.68,8.07-11.6,14.66-20.05,18.61-5.91,2.77-13.22,4.62-21.64,3.6-17.21-2.08-31.68-15.26-35.95-33.02Z"/>
          </g>
          <g>
            <path class="cls-2" d="M842.93,757.52c-12.3-2.58-37.68-9.64-62.15-30.55-25.49-21.79-36.41-47.01-40.69-58.85-.48,15.49.7,38.22,9.05,63.99,4.67,14.41,10.53,26.52,16.15,36.21,4.68,8.07,11.6,14.66,20.05,18.61,5.91,2.77,13.22,4.62,21.64,3.6,17.21-2.08,31.68-15.26,35.95-33.02Z"/>
            <path class="cls-2" d="M781.07,687.5c12.3-2.58,37.68-9.64,62.15-30.55,25.49-21.79,36.41-47.01,40.69-58.85.48,15.49-.7,38.22-9.05,63.99-4.67,14.41-10.53,26.52-16.15,36.21-4.68,8.07-11.6,14.66-20.05,18.61-5.91,2.77-13.22,4.62-21.64,3.6-17.21-2.08-31.68-15.26-35.95-33.02Z"/>
          </g>
          <g>
            <path class="cls-2" d="M990.93,757.52c-12.3-2.58-37.68-9.64-62.15-30.55-25.49-21.79-36.41-47.01-40.69-58.85-.48,15.49.7,38.22,9.05,63.99,4.67,14.41,10.53,26.52,16.15,36.21,4.68,8.07,11.6,14.66,20.05,18.61,5.91,2.77,13.22,4.62,21.64,3.6,17.21-2.08,31.68-15.26,35.95-33.02Z"/>
            <path class="cls-2" d="M929.07,687.5c12.3-2.58,37.68-9.64,62.15-30.55,25.49-21.79,36.41-47.01,40.69-58.85.48,15.49-.7,38.22-9.05,63.99-4.67,14.41-10.53,26.52-16.15,36.21-4.68,8.07-11.6,14.66-20.05,18.61-5.91,2.77-13.22,4.62-21.64,3.6-17.21-2.08-31.68-15.26-35.95-33.02Z"/>
          </g>
          <g>
            <path class="cls-2" d="M1138.93,757.52c-12.3-2.58-37.68-9.64-62.15-30.55-25.49-21.79-36.41-47.01-40.69-58.85-.48,15.49.7,38.22,9.05,63.99,4.67,14.41,10.53,26.52,16.15,36.21,4.68,8.07,11.6,14.66,20.05,18.61,5.91,2.77,13.22,4.62,21.64,3.6,17.21-2.08,31.68-15.26,35.95-33.02Z"/>
            <path class="cls-2" d="M1077.07,687.5c12.3-2.58,37.68-9.64,62.15-30.55,25.49-21.79,36.41-47.01,40.69-58.85.48,15.49-.7,38.22-9.05,63.99-4.67,14.41-10.53,26.52-16.15,36.21-4.68,8.07-11.6,14.66-20.05,18.61-5.91,2.77-13.22,4.62-21.64,3.6-17.21-2.08-31.68-15.26-35.95-33.02Z"/>
          </g>
          <g>
            <path class="cls-2" d="M1286.93,757.52c-12.3-2.58-37.68-9.64-62.15-30.55-25.49-21.79-36.41-47.01-40.69-58.85-.48,15.49.7,38.22,9.05,63.99,4.67,14.41,10.53,26.52,16.15,36.21,4.68,8.07,11.6,14.66,20.05,18.61,5.91,2.77,13.22,4.62,21.64,3.6,17.21-2.08,31.68-15.26,35.95-33.02Z"/>
            <path class="cls-2" d="M1225.07,687.5c12.3-2.58,37.68-9.64,62.15-30.55,25.49-21.79,36.41-47.01,40.69-58.85.48,15.49-.7,38.22-9.05,63.99-4.67,14.41-10.53,26.52-16.15,36.21-4.68,8.07-11.6,14.66-20.05,18.61-5.91,2.77-13.22,4.62-21.64,3.6-17.21-2.08-31.68-15.26-35.95-33.02Z"/>
          </g>
          <g>
            <path class="cls-2" d="M1434.93,757.52c-12.3-2.58-37.68-9.64-62.15-30.55-25.49-21.79-36.41-47.01-40.69-58.85-.48,15.49.7,38.22,9.05,63.99,4.67,14.41,10.53,26.52,16.15,36.21,4.68,8.07,11.6,14.66,20.05,18.61,5.91,2.77,13.22,4.62,21.64,3.6,17.21-2.08,31.68-15.26,35.95-33.02Z"/>
            <path class="cls-2" d="M1373.07,687.5c12.3-2.58,37.68-9.64,62.15-30.55,25.49-21.79,36.41-47.01,40.69-58.85.48,15.49-.7,38.22-9.05,63.99-4.67,14.41-10.53,26.52-16.15,36.21-4.68,8.07-11.6,14.66-20.05,18.61-5.91,2.77-13.22,4.62-21.64,3.6-17.21-2.08-31.68-15.26-35.95-33.02Z"/>
          </g>
          <g>
            <path class="cls-2" d="M1582.93,757.52c-12.3-2.58-37.68-9.64-62.15-30.55-25.49-21.79-36.41-47.01-40.69-58.85-.48,15.49.7,38.22,9.05,63.99,4.67,14.41,10.53,26.52,16.15,36.21,4.68,8.07,11.6,14.66,20.05,18.61,5.91,2.77,13.22,4.62,21.64,3.6,17.21-2.08,31.68-15.26,35.95-33.02Z"/>
            <path class="cls-2" d="M1521.07,687.5c12.3-2.58,37.68-9.64,62.15-30.55,25.49-21.79,36.41-47.01,40.69-58.85.48,15.49-.7,38.22-9.05,63.99-4.67,14.41-10.53,26.52-16.15,36.21-4.68,8.07-11.6,14.66-20.05,18.61-5.91,2.77-13.22,4.62-21.64,3.6-17.21-2.08-31.68-15.26-35.95-33.02Z"/>
          </g>
          <g>
            <path class="cls-2" d="M1730.93,757.52c-12.3-2.58-37.68-9.64-62.15-30.55-25.49-21.79-36.41-47.01-40.69-58.85-.48,15.49.7,38.22,9.05,63.99,4.67,14.41,10.53,26.52,16.15,36.21,4.68,8.07,11.6,14.66,20.05,18.61,5.91,2.77,13.22,4.62,21.64,3.6,17.21-2.08,31.68-15.26,35.95-33.02Z"/>
            <path class="cls-2" d="M1669.07,687.5c12.3-2.58,37.68-9.64,62.15-30.55,25.49-21.79,36.41-47.01,40.69-58.85.48,15.49-.7,38.22-9.05,63.99-4.67,14.41-10.53,26.52-16.15,36.21-4.68,8.07-11.6,14.66-20.05,18.61-5.91,2.77-13.22,4.62-21.64,3.6-17.21-2.08-31.68-15.26-35.95-33.02Z"/>
          </g>
          <g>
            <path class="cls-2" d="M1878.93,757.52c-12.3-2.58-37.68-9.64-62.15-30.55-25.49-21.79-36.41-47.01-40.69-58.85-.48,15.49.7,38.22,9.05,63.99,4.67,14.41,10.53,26.52,16.15,36.21,4.68,8.07,11.6,14.66,20.05,18.61,5.91,2.77,13.22,4.62,21.64,3.6,17.21-2.08,31.68-15.26,35.95-33.02Z"/>
            <path class="cls-2" d="M1817.07,687.5c12.3-2.58,37.68-9.64,62.15-30.55,25.49-21.79,36.41-47.01,40.69-58.85.48,15.49-.7,38.22-9.05,63.99-4.67,14.41-10.53,26.52-16.15,36.21-4.68,8.07-11.6,14.66-20.05,18.61-5.91,2.77-13.22,4.62-21.64,3.6-17.21-2.08-31.68-15.26-35.95-33.02Z"/>
          </g>
          <g>
            <path class="cls-2" d="M102.93,903.18c-12.3-2.58-37.68-9.64-62.15-30.55-25.49-21.79-36.41-47.01-40.69-58.85-.48,15.49.7,38.22,9.05,63.99,4.67,14.41,10.53,26.52,16.15,36.21,4.68,8.07,11.6,14.66,20.05,18.61,5.91,2.77,13.22,4.62,21.64,3.6,17.21-2.08,31.68-15.26,35.95-33.02Z"/>
            <path class="cls-2" d="M41.07,833.16c12.3-2.58,37.68-9.64,62.15-30.55,25.49-21.79,36.41-47.01,40.69-58.85.48,15.49-.7,38.22-9.05,63.99-4.67,14.41-10.53,26.52-16.15,36.21-4.68,8.07-11.6,14.66-20.05,18.61-5.91,2.77-13.22,4.62-21.64,3.6-17.21-2.08-31.68-15.26-35.95-33.02Z"/>
          </g>
          <g>
            <path class="cls-2" d="M250.93,903.18c-12.3-2.58-37.68-9.64-62.15-30.55-25.49-21.79-36.41-47.01-40.69-58.85-.48,15.49.7,38.22,9.05,63.99,4.67,14.41,10.53,26.52,16.15,36.21,4.68,8.07,11.6,14.66,20.05,18.61,5.91,2.77,13.22,4.62,21.64,3.6,17.21-2.08,31.68-15.26,35.95-33.02Z"/>
            <path class="cls-2" d="M189.07,833.16c12.3-2.58,37.68-9.64,62.15-30.55,25.49-21.79,36.41-47.01,40.69-58.85.48,15.49-.7,38.22-9.05,63.99-4.67,14.41-10.53,26.52-16.15,36.21-4.68,8.07-11.6,14.66-20.05,18.61-5.91,2.77-13.22,4.62-21.64,3.6-17.21-2.08-31.68-15.26-35.95-33.02Z"/>
          </g>
          <g>
            <path class="cls-2" d="M398.93,903.18c-12.3-2.58-37.68-9.64-62.15-30.55-25.49-21.79-36.41-47.01-40.69-58.85-.48,15.49.7,38.22,9.05,63.99,4.67,14.41,10.53,26.52,16.15,36.21,4.68,8.07,11.6,14.66,20.05,18.61,5.91,2.77,13.22,4.62,21.64,3.6,17.21-2.08,31.68-15.26,35.95-33.02Z"/>
            <path class="cls-2" d="M337.07,833.16c12.3-2.58,37.68-9.64,62.15-30.55,25.49-21.79,36.41-47.01,40.69-58.85.48,15.49-.7,38.22-9.05,63.99-4.67,14.41-10.53,26.52-16.15,36.21-4.68,8.07-11.6,14.66-20.05,18.61-5.91,2.77-13.22,4.62-21.64,3.6-17.21-2.08-31.68-15.26-35.95-33.02Z"/>
          </g>
          <g>
            <path class="cls-2" d="M546.93,903.18c-12.3-2.58-37.68-9.64-62.15-30.55-25.49-21.79-36.41-47.01-40.69-58.85-.48,15.49.7,38.22,9.05,63.99,4.67,14.41,10.53,26.52,16.15,36.21,4.68,8.07,11.6,14.66,20.05,18.61,5.91,2.77,13.22,4.62,21.64,3.6,17.21-2.08,31.68-15.26,35.95-33.02Z"/>
            <path class="cls-2" d="M485.07,833.16c12.3-2.58,37.68-9.64,62.15-30.55,25.49-21.79,36.41-47.01,40.69-58.85.48,15.49-.7,38.22-9.05,63.99-4.67,14.41-10.53,26.52-16.15,36.21-4.68,8.07-11.6,14.66-20.05,18.61-5.91,2.77-13.22,4.62-21.64,3.6-17.21-2.08-31.68-15.26-35.95-33.02Z"/>
          </g>
          <g>
            <path class="cls-2" d="M694.93,903.18c-12.3-2.58-37.68-9.64-62.15-30.55-25.49-21.79-36.41-47.01-40.69-58.85-.48,15.49.7,38.22,9.05,63.99,4.67,14.41,10.53,26.52,16.15,36.21,4.68,8.07,11.6,14.66,20.05,18.61,5.91,2.77,13.22,4.62,21.64,3.6,17.21-2.08,31.68-15.26,35.95-33.02Z"/>
            <path class="cls-2" d="M633.07,833.16c12.3-2.58,37.68-9.64,62.15-30.55,25.49-21.79,36.41-47.01,40.69-58.85.48,15.49-.7,38.22-9.05,63.99-4.67,14.41-10.53,26.52-16.15,36.21-4.68,8.07-11.6,14.66-20.05,18.61-5.91,2.77-13.22,4.62-21.64,3.6-17.21-2.08-31.68-15.26-35.95-33.02Z"/>
          </g>
          <g>
            <path class="cls-2" d="M842.93,903.18c-12.3-2.58-37.68-9.64-62.15-30.55-25.49-21.79-36.41-47.01-40.69-58.85-.48,15.49.7,38.22,9.05,63.99,4.67,14.41,10.53,26.52,16.15,36.21,4.68,8.07,11.6,14.66,20.05,18.61,5.91,2.77,13.22,4.62,21.64,3.6,17.21-2.08,31.68-15.26,35.95-33.02Z"/>
            <path class="cls-2" d="M781.07,833.16c12.3-2.58,37.68-9.64,62.15-30.55,25.49-21.79,36.41-47.01,40.69-58.85.48,15.49-.7,38.22-9.05,63.99-4.67,14.41-10.53,26.52-16.15,36.21-4.68,8.07-11.6,14.66-20.05,18.61-5.91,2.77-13.22,4.62-21.64,3.6-17.21-2.08-31.68-15.26-35.95-33.02Z"/>
          </g>
          <g>
            <path class="cls-2" d="M990.93,903.18c-12.3-2.58-37.68-9.64-62.15-30.55-25.49-21.79-36.41-47.01-40.69-58.85-.48,15.49.7,38.22,9.05,63.99,4.67,14.41,10.53,26.52,16.15,36.21,4.68,8.07,11.6,14.66,20.05,18.61,5.91,2.77,13.22,4.62,21.64,3.6,17.21-2.08,31.68-15.26,35.95-33.02Z"/>
            <path class="cls-2" d="M929.07,833.16c12.3-2.58,37.68-9.64,62.15-30.55,25.49-21.79,36.41-47.01,40.69-58.85.48,15.49-.7,38.22-9.05,63.99-4.67,14.41-10.53,26.52-16.15,36.21-4.68,8.07-11.6,14.66-20.05,18.61-5.91,2.77-13.22,4.62-21.64,3.6-17.21-2.08-31.68-15.26-35.95-33.02Z"/>
          </g>
          <g>
            <path class="cls-2" d="M1138.93,903.18c-12.3-2.58-37.68-9.64-62.15-30.55-25.49-21.79-36.41-47.01-40.69-58.85-.48,15.49.7,38.22,9.05,63.99,4.67,14.41,10.53,26.52,16.15,36.21,4.68,8.07,11.6,14.66,20.05,18.61,5.91,2.77,13.22,4.62,21.64,3.6,17.21-2.08,31.68-15.26,35.95-33.02Z"/>
            <path class="cls-2" d="M1077.07,833.16c12.3-2.58,37.68-9.64,62.15-30.55,25.49-21.79,36.41-47.01,40.69-58.85.48,15.49-.7,38.22-9.05,63.99-4.67,14.41-10.53,26.52-16.15,36.21-4.68,8.07-11.6,14.66-20.05,18.61-5.91,2.77-13.22,4.62-21.64,3.6-17.21-2.08-31.68-15.26-35.95-33.02Z"/>
          </g>
          <g>
            <path class="cls-2" d="M1286.93,903.18c-12.3-2.58-37.68-9.64-62.15-30.55-25.49-21.79-36.41-47.01-40.69-58.85-.48,15.49.7,38.22,9.05,63.99,4.67,14.41,10.53,26.52,16.15,36.21,4.68,8.07,11.6,14.66,20.05,18.61,5.91,2.77,13.22,4.62,21.64,3.6,17.21-2.08,31.68-15.26,35.95-33.02Z"/>
            <path class="cls-2" d="M1225.07,833.16c12.3-2.58,37.68-9.64,62.15-30.55,25.49-21.79,36.41-47.01,40.69-58.85.48,15.49-.7,38.22-9.05,63.99-4.67,14.41-10.53,26.52-16.15,36.21-4.68,8.07-11.6,14.66-20.05,18.61-5.91,2.77-13.22,4.62-21.64,3.6-17.21-2.08-31.68-15.26-35.95-33.02Z"/>
          </g>
          <g>
            <path class="cls-2" d="M1434.93,903.18c-12.3-2.58-37.68-9.64-62.15-30.55-25.49-21.79-36.41-47.01-40.69-58.85-.48,15.49.7,38.22,9.05,63.99,4.67,14.41,10.53,26.52,16.15,36.21,4.68,8.07,11.6,14.66,20.05,18.61,5.91,2.77,13.22,4.62,21.64,3.6,17.21-2.08,31.68-15.26,35.95-33.02Z"/>
            <path class="cls-2" d="M1373.07,833.16c12.3-2.58,37.68-9.64,62.15-30.55,25.49-21.79,36.41-47.01,40.69-58.85.48,15.49-.7,38.22-9.05,63.99-4.67,14.41-10.53,26.52-16.15,36.21-4.68,8.07-11.6,14.66-20.05,18.61-5.91,2.77-13.22,4.62-21.64,3.6-17.21-2.08-31.68-15.26-35.95-33.02Z"/>
          </g>
          <g>
            <path class="cls-2" d="M1582.93,903.18c-12.3-2.58-37.68-9.64-62.15-30.55-25.49-21.79-36.41-47.01-40.69-58.85-.48,15.49.7,38.22,9.05,63.99,4.67,14.41,10.53,26.52,16.15,36.21,4.68,8.07,11.6,14.66,20.05,18.61,5.91,2.77,13.22,4.62,21.64,3.6,17.21-2.08,31.68-15.26,35.95-33.02Z"/>
            <path class="cls-2" d="M1521.07,833.16c12.3-2.58,37.68-9.64,62.15-30.55,25.49-21.79,36.41-47.01,40.69-58.85.48,15.49-.7,38.22-9.05,63.99-4.67,14.41-10.53,26.52-16.15,36.21-4.68,8.07-11.6,14.66-20.05,18.61-5.91,2.77-13.22,4.62-21.64,3.6-17.21-2.08-31.68-15.26-35.95-33.02Z"/>
          </g>
          <g>
            <path class="cls-2" d="M1730.93,903.18c-12.3-2.58-37.68-9.64-62.15-30.55-25.49-21.79-36.41-47.01-40.69-58.85-.48,15.49.7,38.22,9.05,63.99,4.67,14.41,10.53,26.52,16.15,36.21,4.68,8.07,11.6,14.66,20.05,18.61,5.91,2.77,13.22,4.62,21.64,3.6,17.21-2.08,31.68-15.26,35.95-33.02Z"/>
            <path class="cls-2" d="M1669.07,833.16c12.3-2.58,37.68-9.64,62.15-30.55,25.49-21.79,36.41-47.01,40.69-58.85.48,15.49-.7,38.22-9.05,63.99-4.67,14.41-10.53,26.52-16.15,36.21-4.68,8.07-11.6,14.66-20.05,18.61-5.91,2.77-13.22,4.62-21.64,3.6-17.21-2.08-31.68-15.26-35.95-33.02Z"/>
          </g>
          <g>
            <path class="cls-2" d="M1878.93,903.18c-12.3-2.58-37.68-9.64-62.15-30.55-25.49-21.79-36.41-47.01-40.69-58.85-.48,15.49.7,38.22,9.05,63.99,4.67,14.41,10.53,26.52,16.15,36.21,4.68,8.07,11.6,14.66,20.05,18.61,5.91,2.77,13.22,4.62,21.64,3.6,17.21-2.08,31.68-15.26,35.95-33.02Z"/>
            <path class="cls-2" d="M1817.07,833.16c12.3-2.58,37.68-9.64,62.15-30.55,25.49-21.79,36.41-47.01,40.69-58.85.48,15.49-.7,38.22-9.05,63.99-4.67,14.41-10.53,26.52-16.15,36.21-4.68,8.07-11.6,14.66-20.05,18.61-5.91,2.77-13.22,4.62-21.64,3.6-17.21-2.08-31.68-15.26-35.95-33.02Z"/>
          </g>
          <g>
            <path class="cls-2" d="M102.93,1048.84c-12.3-2.58-37.68-9.64-62.15-30.55-25.49-21.79-36.41-47.01-40.69-58.85-.48,15.49.7,38.22,9.05,63.99,4.67,14.41,10.53,26.52,16.15,36.21,4.68,8.07,11.6,14.66,20.05,18.61,5.91,2.77,13.22,4.62,21.64,3.6,17.21-2.08,31.68-15.26,35.95-33.02Z"/>
            <path class="cls-2" d="M41.07,978.82c12.3-2.58,37.68-9.64,62.15-30.55,25.49-21.79,36.41-47.01,40.69-58.85.48,15.49-.7,38.22-9.05,63.99-4.67,14.41-10.53,26.52-16.15,36.21-4.68,8.07-11.6,14.66-20.05,18.61-5.91,2.77-13.22,4.62-21.64,3.6-17.21-2.08-31.68-15.26-35.95-33.02Z"/>
          </g>
          <g>
            <path class="cls-2" d="M250.93,1048.84c-12.3-2.58-37.68-9.64-62.15-30.55-25.49-21.79-36.41-47.01-40.69-58.85-.48,15.49.7,38.22,9.05,63.99,4.67,14.41,10.53,26.52,16.15,36.21,4.68,8.07,11.6,14.66,20.05,18.61,5.91,2.77,13.22,4.62,21.64,3.6,17.21-2.08,31.68-15.26,35.95-33.02Z"/>
            <path class="cls-2" d="M189.07,978.82c12.3-2.58,37.68-9.64,62.15-30.55,25.49-21.79,36.41-47.01,40.69-58.85.48,15.49-.7,38.22-9.05,63.99-4.67,14.41-10.53,26.52-16.15,36.21-4.68,8.07-11.6,14.66-20.05,18.61-5.91,2.77-13.22,4.62-21.64,3.6-17.21-2.08-31.68-15.26-35.95-33.02Z"/>
          </g>
          <g>
            <path class="cls-2" d="M398.93,1048.84c-12.3-2.58-37.68-9.64-62.15-30.55-25.49-21.79-36.41-47.01-40.69-58.85-.48,15.49.7,38.22,9.05,63.99,4.67,14.41,10.53,26.52,16.15,36.21,4.68,8.07,11.6,14.66,20.05,18.61,5.91,2.77,13.22,4.62,21.64,3.6,17.21-2.08,31.68-15.26,35.95-33.02Z"/>
            <path class="cls-2" d="M337.07,978.82c12.3-2.58,37.68-9.64,62.15-30.55,25.49-21.79,36.41-47.01,40.69-58.85.48,15.49-.7,38.22-9.05,63.99-4.67,14.41-10.53,26.52-16.15,36.21-4.68,8.07-11.6,14.66-20.05,18.61-5.91,2.77-13.22,4.62-21.64,3.6-17.21-2.08-31.68-15.26-35.95-33.02Z"/>
          </g>
          <g>
            <path class="cls-2" d="M546.93,1048.84c-12.3-2.58-37.68-9.64-62.15-30.55-25.49-21.79-36.41-47.01-40.69-58.85-.48,15.49.7,38.22,9.05,63.99,4.67,14.41,10.53,26.52,16.15,36.21,4.68,8.07,11.6,14.66,20.05,18.61,5.91,2.77,13.22,4.62,21.64,3.6,17.21-2.08,31.68-15.26,35.95-33.02Z"/>
            <path class="cls-2" d="M485.07,978.82c12.3-2.58,37.68-9.64,62.15-30.55,25.49-21.79,36.41-47.01,40.69-58.85.48,15.49-.7,38.22-9.05,63.99-4.67,14.41-10.53,26.52-16.15,36.21-4.68,8.07-11.6,14.66-20.05,18.61-5.91,2.77-13.22,4.62-21.64,3.6-17.21-2.08-31.68-15.26-35.95-33.02Z"/>
          </g>
          <g>
            <path class="cls-2" d="M694.93,1048.84c-12.3-2.58-37.68-9.64-62.15-30.55-25.49-21.79-36.41-47.01-40.69-58.85-.48,15.49.7,38.22,9.05,63.99,4.67,14.41,10.53,26.52,16.15,36.21,4.68,8.07,11.6,14.66,20.05,18.61,5.91,2.77,13.22,4.62,21.64,3.6,17.21-2.08,31.68-15.26,35.95-33.02Z"/>
            <path class="cls-2" d="M633.07,978.82c12.3-2.58,37.68-9.64,62.15-30.55,25.49-21.79,36.41-47.01,40.69-58.85.48,15.49-.7,38.22-9.05,63.99-4.67,14.41-10.53,26.52-16.15,36.21-4.68,8.07-11.6,14.66-20.05,18.61-5.91,2.77-13.22,4.62-21.64,3.6-17.21-2.08-31.68-15.26-35.95-33.02Z"/>
          </g>
          <g>
            <path class="cls-2" d="M842.93,1048.84c-12.3-2.58-37.68-9.64-62.15-30.55-25.49-21.79-36.41-47.01-40.69-58.85-.48,15.49.7,38.22,9.05,63.99,4.67,14.41,10.53,26.52,16.15,36.21,4.68,8.07,11.6,14.66,20.05,18.61,5.91,2.77,13.22,4.62,21.64,3.6,17.21-2.08,31.68-15.26,35.95-33.02Z"/>
            <path class="cls-2" d="M781.07,978.82c12.3-2.58,37.68-9.64,62.15-30.55,25.49-21.79,36.41-47.01,40.69-58.85.48,15.49-.7,38.22-9.05,63.99-4.67,14.41-10.53,26.52-16.15,36.21-4.68,8.07-11.6,14.66-20.05,18.61-5.91,2.77-13.22,4.62-21.64,3.6-17.21-2.08-31.68-15.26-35.95-33.02Z"/>
          </g>
          <g>
            <path class="cls-2" d="M990.93,1048.84c-12.3-2.58-37.68-9.64-62.15-30.55-25.49-21.79-36.41-47.01-40.69-58.85-.48,15.49.7,38.22,9.05,63.99,4.67,14.41,10.53,26.52,16.15,36.21,4.68,8.07,11.6,14.66,20.05,18.61,5.91,2.77,13.22,4.62,21.64,3.6,17.21-2.08,31.68-15.26,35.95-33.02Z"/>
            <path class="cls-2" d="M929.07,978.82c12.3-2.58,37.68-9.64,62.15-30.55,25.49-21.79,36.41-47.01,40.69-58.85.48,15.49-.7,38.22-9.05,63.99-4.67,14.41-10.53,26.52-16.15,36.21-4.68,8.07-11.6,14.66-20.05,18.61-5.91,2.77-13.22,4.62-21.64,3.6-17.21-2.08-31.68-15.26-35.95-33.02Z"/>
          </g>
          <g>
            <path class="cls-2" d="M1138.93,1048.84c-12.3-2.58-37.68-9.64-62.15-30.55-25.49-21.79-36.41-47.01-40.69-58.85-.48,15.49.7,38.22,9.05,63.99,4.67,14.41,10.53,26.52,16.15,36.21,4.68,8.07,11.6,14.66,20.05,18.61,5.91,2.77,13.22,4.62,21.64,3.6,17.21-2.08,31.68-15.26,35.95-33.02Z"/>
            <path class="cls-2" d="M1077.07,978.82c12.3-2.58,37.68-9.64,62.15-30.55,25.49-21.79,36.41-47.01,40.69-58.85.48,15.49-.7,38.22-9.05,63.99-4.67,14.41-10.53,26.52-16.15,36.21-4.68,8.07-11.6,14.66-20.05,18.61-5.91,2.77-13.22,4.62-21.64,3.6-17.21-2.08-31.68-15.26-35.95-33.02Z"/>
          </g>
          <g>
            <path class="cls-2" d="M1286.93,1048.84c-12.3-2.58-37.68-9.64-62.15-30.55-25.49-21.79-36.41-47.01-40.69-58.85-.48,15.49.7,38.22,9.05,63.99,4.67,14.41,10.53,26.52,16.15,36.21,4.68,8.07,11.6,14.66,20.05,18.61,5.91,2.77,13.22,4.62,21.64,3.6,17.21-2.08,31.68-15.26,35.95-33.02Z"/>
            <path class="cls-2" d="M1225.07,978.82c12.3-2.58,37.68-9.64,62.15-30.55,25.49-21.79,36.41-47.01,40.69-58.85.48,15.49-.7,38.22-9.05,63.99-4.67,14.41-10.53,26.52-16.15,36.21-4.68,8.07-11.6,14.66-20.05,18.61-5.91,2.77-13.22,4.62-21.64,3.6-17.21-2.08-31.68-15.26-35.95-33.02Z"/>
          </g>
          <g>
            <path class="cls-2" d="M1434.93,1048.84c-12.3-2.58-37.68-9.64-62.15-30.55-25.49-21.79-36.41-47.01-40.69-58.85-.48,15.49.7,38.22,9.05,63.99,4.67,14.41,10.53,26.52,16.15,36.21,4.68,8.07,11.6,14.66,20.05,18.61,5.91,2.77,13.22,4.62,21.64,3.6,17.21-2.08,31.68-15.26,35.95-33.02Z"/>
            <path class="cls-2" d="M1373.07,978.82c12.3-2.58,37.68-9.64,62.15-30.55,25.49-21.79,36.41-47.01,40.69-58.85.48,15.49-.7,38.22-9.05,63.99-4.67,14.41-10.53,26.52-16.15,36.21-4.68,8.07-11.6,14.66-20.05,18.61-5.91,2.77-13.22,4.62-21.64,3.6-17.21-2.08-31.68-15.26-35.95-33.02Z"/>
          </g>
          <g>
            <path class="cls-2" d="M1582.93,1048.84c-12.3-2.58-37.68-9.64-62.15-30.55-25.49-21.79-36.41-47.01-40.69-58.85-.48,15.49.7,38.22,9.05,63.99,4.67,14.41,10.53,26.52,16.15,36.21,4.68,8.07,11.6,14.66,20.05,18.61,5.91,2.77,13.22,4.62,21.64,3.6,17.21-2.08,31.68-15.26,35.95-33.02Z"/>
            <path class="cls-2" d="M1521.07,978.82c12.3-2.58,37.68-9.64,62.15-30.55,25.49-21.79,36.41-47.01,40.69-58.85.48,15.49-.7,38.22-9.05,63.99-4.67,14.41-10.53,26.52-16.15,36.21-4.68,8.07-11.6,14.66-20.05,18.61-5.91,2.77-13.22,4.62-21.64,3.6-17.21-2.08-31.68-15.26-35.95-33.02Z"/>
          </g>
          <g>
            <path class="cls-2" d="M1730.93,1048.84c-12.3-2.58-37.68-9.64-62.15-30.55-25.49-21.79-36.41-47.01-40.69-58.85-.48,15.49.7,38.22,9.05,63.99,4.67,14.41,10.53,26.52,16.15,36.21,4.68,8.07,11.6,14.66,20.05,18.61,5.91,2.77,13.22,4.62,21.64,3.6,17.21-2.08,31.68-15.26,35.95-33.02Z"/>
            <path class="cls-2" d="M1669.07,978.82c12.3-2.58,37.68-9.64,62.15-30.55,25.49-21.79,36.41-47.01,40.69-58.85.48,15.49-.7,38.22-9.05,63.99-4.67,14.41-10.53,26.52-16.15,36.21-4.68,8.07-11.6,14.66-20.05,18.61-5.91,2.77-13.22,4.62-21.64,3.6-17.21-2.08-31.68-15.26-35.95-33.02Z"/>
          </g>
          <g>
            <path class="cls-2" d="M1878.93,1048.84c-12.3-2.58-37.68-9.64-62.15-30.55-25.49-21.79-36.41-47.01-40.69-58.85-.48,15.49.7,38.22,9.05,63.99,4.67,14.41,10.53,26.52,16.15,36.21,4.68,8.07,11.6,14.66,20.05,18.61,5.91,2.77,13.22,4.62,21.64,3.6,17.21-2.08,31.68-15.26,35.95-33.02Z"/>
            <path class="cls-2" d="M1817.07,978.82c12.3-2.58,37.68-9.64,62.15-30.55,25.49-21.79,36.41-47.01,40.69-58.85.48,15.49-.7,38.22-9.05,63.99-4.67,14.41-10.53,26.52-16.15,36.21-4.68,8.07-11.6,14.66-20.05,18.61-5.91,2.77-13.22,4.62-21.64,3.6-17.21-2.08-31.68-15.26-35.95-33.02Z"/>
          </g>
        </g>
      </g>
    </g>
  </g>
</svg>